<svg xmlns="http://www.w3.org/2000/svg" version="1.1" xmlns:xlink="http://www.w3.org/1999/xlink" xmlns:svgjs="http://svgjs.dev/svgjs" width="2000" height="1247" viewBox="0 0 2000 1247"><g transform="matrix(1,0,0,1,-1.2121212121212466,0.504858299595071)"><svg viewBox="0 0 396 247" data-background-color="#ffffff" preserveAspectRatio="xMidYMid meet" height="1247" width="2000" xmlns="http://www.w3.org/2000/svg" xmlns:xlink="http://www.w3.org/1999/xlink"><g id="tight-bounds" transform="matrix(1,0,0,1,0.2400000000000091,-0.09999999999999432)"><svg viewBox="0 0 395.52 247.2" height="247.2" width="395.52"><g><svg></svg></g><g><svg viewBox="0 0 395.52 247.2" height="247.2" width="395.52"><g transform="matrix(1,0,0,1,39.55200000000002,46.876316305108475)"><svg viewBox="0 0 316.41599999999994 153.44736738978304" height="153.44736738978304" width="316.41599999999994"><g><svg viewBox="0 0 316.41599999999994 153.44736738978304" height="153.44736738978304" width="316.41599999999994"><g><svg viewBox="0 0 316.41599999999994 153.44736738978304" height="153.44736738978304" width="316.41599999999994"><g><svg viewBox="0 0 316.41599999999994 153.44736738978304" height="153.44736738978304" width="316.41599999999994"><g id="textblocktransform"><svg viewBox="0 0 316.41599999999994 153.44736738978304" height="153.44736738978304" width="316.41599999999994" id="textblock"><g><svg viewBox="0 0 316.41599999999994 153.44736738978304" height="153.44736738978304" width="316.41599999999994"><g transform="matrix(1,0,0,1,0,0)"><svg width="316.41599999999994" viewBox="1.149999976158142 -34 71.43999481201172 34.650001525878906" height="153.44736738978304" data-palette-color="#77d4fc"><path d="M1.15-23.75L6.05-23.75 6.2-22.4Q8.1-24.15 9.9-24.15L9.9-24.15Q12.45-24.15 13.75-22.25L13.75-22.25Q16.35-24.15 18.35-24.15L18.35-24.15Q21.35-24.15 22.63-22.4 23.9-20.65 23.9-15.9L23.9-15.9 23.9 0 18.8 0 18.8-13.7Q18.8-18.3 18-19L18-19Q17.6-19.4 16.85-19.4 16.1-19.4 14.95-18.4L14.95-18.4Q15.2-17.25 15.2-13.7L15.2-13.7 15.2-8.15 10.15-8.15 10.15-13.7Q10.15-18.25 9.6-19L9.6-19Q9.3-19.4 8.58-19.4 7.85-19.4 6.4-18.3L6.4-18.3 6.4 0 1.15 0 1.15-23.75ZM46.55-23.25L46.55-23.25 45.8-18.45Q42.5-19.35 39.4-19.35 36.3-19.35 34.9-17.63 33.5-15.9 33.5-12.1 33.5-8.3 34.7-6.28 35.9-4.25 39.25-4.25 42.6-4.25 45.8-5.15L45.8-5.15 46.55-0.35Q43.05 0.65 39.1 0.65L39.1 0.65Q27.95 0.65 27.95-11.8 27.95-24.25 39.05-24.25L39.05-24.25Q43.2-24.25 46.55-23.25ZM58.15-4.5L58.15-19.25 53.25-19.25 53.25-23.75 58.15-23.75Q58.15-29.25 59.95-31.63 61.75-34 66.09-34L66.09-34Q69.05-34 72.59-33.15L72.59-33.15 71.8-28.6Q68.7-29.3 66.59-29.3 64.5-29.3 63.82-28.05 63.15-26.8 63.15-23.75L63.15-23.75 71.7-23.75 71.7-19.25 63.15-19.25 63.15-4.5 71.8-4.5 71.8 0 53.05 0 53.05-4.5 58.15-4.5Z" opacity="1" transform="matrix(1,0,0,1,0,0)" fill="#000000" class="undefined-text-0" data-fill-palette-color="primary" id="text-0"></path></svg></g></svg></g></svg></g></svg></g><g></g></svg></g></svg></g></svg></g><g><path xmlns="http://www.w3.org/2000/svg" d="M0 247.2v-247.2h395.52v247.2zM381.682 233.362v-219.524h-367.844v219.524z" fill="#000000" fill-rule="nonzero" stroke="none" stroke-width="1" stroke-linecap="butt" stroke-linejoin="miter" stroke-miterlimit="10" stroke-dasharray="" stroke-dashoffset="0" font-family="none" font-weight="none" font-size="none" text-anchor="none" style="mix-blend-mode: normal" data-fill-palette-color="tertiary"></path></g></svg></g><defs></defs></svg><rect width="395.52" height="247.2" fill="none" stroke="none" visibility="hidden"></rect></g></svg></g></svg>